<?xml version="1.0" standalone="no"?>
<!DOCTYPE svg PUBLIC "-//W3C//DTD SVG 20010904//EN"
 "http://www.w3.org/TR/2001/REC-SVG-20010904/DTD/svg10.dtd">
<svg version="1.0" xmlns="http://www.w3.org/2000/svg"
 width="1813.000000pt" height="1813.000000pt" viewBox="0 0 1813.000000 1813.000000"
 preserveAspectRatio="xMidYMid meet">
<metadata>
Created by potrace 1.11, written by Peter Selinger 2001-2013
</metadata>
<g transform="translate(0.000000,1813.000000) scale(0.100000,-0.100000)"
fill="#000000" stroke="none">
<path d="M3779 17676 c-1 0 -2 -3877 -3 -8613 l-1 -8613 1147 0 c1086 0 1148
1 1149 18 0 9 0 205 0 436 l0 418 22 -16 c60 -43 347 -211 457 -268 315 -164
758 -335 1030 -398 19 -5 62 -15 95 -24 86 -21 233 -54 279 -61 21 -3 48 -8
60 -10 20 -5 39 -8 134 -20 20 -3 51 -7 67 -10 17 -2 59 -7 95 -10 36 -4 76
-8 90 -11 139 -24 813 -23 960 0 14 3 52 7 85 11 62 6 177 22 230 31 36 6 131
22 165 28 123 21 495 118 615 160 22 8 81 28 130 46 50 17 99 35 110 40 11 5
61 25 110 45 581 235 1163 624 1625 1085 357 356 619 702 863 1135 79 141 292
600 288 620 -1 3 5 18 13 33 27 52 155 451 171 535 2 9 11 44 19 78 9 33 18
73 21 87 8 47 14 73 19 90 3 9 7 33 10 52 3 19 8 47 11 63 9 51 13 76 25 154
18 131 20 140 26 210 3 37 9 94 13 126 4 31 4 57 -1 57 -4 0 -8 -8 -9 -17 -1
-30 -9 -66 -16 -72 -3 -3 -3 17 0 44 22 175 28 479 12 665 -7 96 -2 122 9 41
8 -59 19 -68 12 -11 -3 25 -8 85 -11 134 -4 49 -8 96 -10 105 -1 9 -6 43 -9
76 -11 89 -19 147 -41 270 -3 17 -7 44 -10 60 -28 159 -108 465 -170 650 -76
225 -155 416 -267 640 -44 88 -85 169 -92 180 -6 11 -24 43 -39 70 -15 28 -32
57 -37 65 -5 8 -42 68 -82 132 -307 495 -725 953 -1208 1322 -47 36 -89 69
-95 74 -48 39 -437 292 -449 292 -2 0 -46 24 -97 53 -198 112 -463 231 -711
321 -70 25 -132 46 -138 46 -6 0 -18 4 -28 9 -29 16 -361 108 -452 125 -14 2
-45 9 -70 14 -25 6 -62 13 -84 16 -21 4 -41 8 -45 10 -3 2 -28 6 -56 10 -27 3
-61 8 -75 10 -14 2 -47 7 -73 11 -27 4 -57 8 -66 10 -9 2 -57 6 -107 10 -49 4
-97 9 -106 11 -25 4 -333 17 -413 17 -88 0 -380 -12 -420 -17 -16 -2 -64 -7
-105 -11 -41 -4 -82 -8 -90 -10 -8 -1 -40 -6 -70 -10 -68 -8 -98 -13 -175 -26
-95 -16 -359 -71 -368 -76 -8 -5 -93 -27 -147 -39 -65 -14 -427 -140 -558
-195 -273 -113 -620 -296 -819 -431 -23 -15 -44 -28 -46 -28 -3 0 -5 1783 -5
3963 -1 2179 -1 3967 -1 3974 -1 8 -290 11 -1146 11 -630 0 -1146 -1 -1146 -2z
m5248 -10491 c288 -26 559 -123 793 -283 359 -245 624 -640 704 -1049 9 -43
18 -91 22 -108 10 -53 13 -378 3 -440 -5 -33 -11 -75 -14 -92 -3 -18 -9 -52
-15 -75 -116 -508 -454 -930 -921 -1152 -151 -72 -308 -123 -439 -142 -19 -3
-46 -8 -60 -10 -14 -3 -99 -7 -190 -9 -241 -5 -409 23 -648 110 -56 20 -217
100 -252 125 -16 11 -31 20 -35 20 -20 0 -213 158 -300 245 -88 89 -213 248
-254 325 -47 87 -111 221 -111 232 0 8 -4 18 -9 24 -20 21 -72 216 -95 359
-18 108 -24 336 -11 417 4 24 8 55 11 71 35 228 111 437 232 637 25 41 50 80
54 85 5 6 27 35 50 65 23 30 74 88 113 128 359 376 861 565 1372 517z"/>
</g>
</svg>
